<svg width="512" height="512" viewBox="0 0 512 512" fill="none" xmlns="http://www.w3.org/2000/svg">
  <circle cx="256" cy="128" r="64" fill="#16a34a"/>
  <path d="M160 320C160 266.981 202.981 224 256 224C309.019 224 352 266.981 352 320V352H160V320Z" fill="#16a34a"/>
  <circle cx="128" cy="224" r="48" fill="#86efac"/>
  <path d="M64 384C64 348.654 92.6538 320 128 320C163.346 320 192 348.654 192 384V416H64V384Z" fill="#86efac"/>
  <circle cx="384" cy="224" r="48" fill="#86efac"/>
  <path d="M320 384C320 348.654 348.654 320 384 320C419.346 320 448 348.654 448 384V416H320V384Z" fill="#86efac"/>
</svg>
